<?xml version="1.0" encoding="UTF-8" standalone="no"?>
<svg
   xmlns:dc="http://purl.org/dc/elements/1.1/"
   xmlns:cc="http://web.resource.org/cc/"
   xmlns:rdf="http://www.w3.org/1999/02/22-rdf-syntax-ns#"
   xmlns:svg="http://www.w3.org/2000/svg"
   xmlns="http://www.w3.org/2000/svg"
   xmlns:xlink="http://www.w3.org/1999/xlink"
   xmlns:sodipodi="http://sodipodi.sourceforge.net/DTD/sodipodi-0.dtd"
   xmlns:inkscape="http://www.inkscape.org/namespaces/inkscape"
   width="2000"
   height="1500"
   version="1.0"
   id="svg2"
   sodipodi:version="0.32"
   inkscape:version="0.45.1"
   sodipodi:docname="tables.svg"
   inkscape:output_extension="org.inkscape.output.svg.inkscape"
   sodipodi:docbase="C:\Users\xconspirisist\Projects\westlan">
  <metadata
     id="metadata11">
    <rdf:RDF>
      <cc:Work
         rdf:about="">
        <dc:format>image/svg+xml</dc:format>
        <dc:type
           rdf:resource="http://purl.org/dc/dcmitype/StillImage" />
      </cc:Work>
    </rdf:RDF>
  </metadata>
  <defs
     id="defs9" />
  <sodipodi:namedview
     inkscape:window-height="977"
     inkscape:window-width="1280"
     inkscape:pageshadow="2"
     inkscape:pageopacity="0.0"
     guidetolerance="10.0"
     gridtolerance="10.0"
     objecttolerance="10.0"
     borderopacity="1.0"
     bordercolor="#666666"
     pagecolor="#ffffff"
     id="base"
     inkscape:zoom="0.50797409"
     inkscape:cx="977.47967"
     inkscape:cy="767.01758"
     inkscape:window-x="-4"
     inkscape:window-y="24"
     inkscape:current-layer="svg2"
     showgrid="true" />
  <style
     id="style4">
		rect.table {
			fill: #dee3e7;
			stroke: black;
			stroke-width: 1;
		}
	</style>
  <a
     id="a2163"
     transform="matrix(1.9999999,0,0,2.000003,1026.0715,-463.90017)">
    <rect
       style="fill:#dee3e7;stroke:#000000;stroke-width:0.69968116"
       id="rect6"
       y="232.29958"
       x="387.31412"
       height="49.30032"
       width="99.300323"
       class="table" />
  </a>
  <use
     x="0"
     y="0"
     xlink:href="#a2163"
     id="use2166"
     transform="translate(-200.00001,339.99999)"
     width="2000"
     height="1500" />
  <flowRoot
     xml:space="preserve"
     id="flowRoot2168"><flowRegion
       id="flowRegion2170"><rect
         id="rect2172"
         width="144.69241"
         height="55.120922"
         x="1821.9434"
         y="24.531055" /></flowRegion><flowPara
       id="flowPara2174">Master table!</flowPara></flowRoot>  <use
     x="0"
     y="0"
     xlink:href="#a2163"
     id="use2184"
     transform="translate(-1.7037388e-5,339.99984)"
     width="2000"
     height="1500" />
  <use
     x="0"
     y="0"
     xlink:href="#a2163"
     id="use2186"
     transform="translate(-400.00001,339.99999)"
     width="2000"
     height="1500" />
  <use
     x="0"
     y="0"
     xlink:href="#a2163"
     id="use2188"
     transform="translate(-600.00001,339.99984)"
     width="2000"
     height="1500" />
  <use
     x="0"
     y="0"
     xlink:href="#a2163"
     id="use2190"
     transform="translate(-800.00001,339.99999)"
     width="2000"
     height="1500" />
  <use
     x="0"
     y="0"
     xlink:href="#a2163"
     id="use2192"
     transform="translate(-1000,339.99984)"
     width="2000"
     height="1500" />
  <use
     x="0"
     y="0"
     xlink:href="#a2163"
     id="use2194"
     transform="translate(-1200,339.99984)"
     width="2000"
     height="1500" />
  <use
     x="0"
     y="0"
     xlink:href="#a2163"
     id="use2196"
     transform="translate(-1400,339.99999)"
     width="2000"
     height="1500" />
  <use
     x="0"
     y="0"
     xlink:href="#a2163"
     id="use2214"
     transform="matrix(0,1,-1,0,300.00015,-1360)"
     width="2000"
     height="1500" />
  <use
     x="0"
     y="0"
     xlink:href="#a2163"
     id="use2216"
     transform="matrix(0,1,-1,0,400,-1360)"
     width="2000"
     height="1500" />
  <use
     x="0"
     y="0"
     xlink:href="#a2163"
     id="use2218"
     transform="matrix(0,1,-1,0,300.00015,-1160)"
     width="2000"
     height="1500"
     inkscape:transform-center-y="-196.86043"
     inkscape:transform-center-x="-157.48835" />
  <use
     x="0"
     y="0"
     xlink:href="#a2163"
     id="use2220"
     transform="matrix(0,1,-1,0,400,-1160)"
     width="2000"
     height="1500" />
  <use
     x="0"
     y="0"
     xlink:href="#a2163"
     id="use2222"
     transform="matrix(0,1,-1,0,900.0001,-1360)"
     width="2000"
     height="1500" />
  <use
     x="0"
     y="0"
     xlink:href="#a2163"
     id="use2224"
     transform="matrix(0,1,-1,0,1000,-1360)"
     width="2000"
     height="1500" />
  <use
     x="0"
     y="0"
     xlink:href="#a2163"
     id="use2226"
     transform="matrix(0,1,-1,0,900.0001,-1160)"
     width="2000"
     height="1500"
     inkscape:transform-center-y="-196.86043"
     inkscape:transform-center-x="-157.48835" />
  <use
     x="0"
     y="0"
     xlink:href="#a2163"
     id="use2228"
     transform="matrix(0,1,-1,0,1000,-1160)"
     width="2000"
     height="1500" />
  <use
     x="0"
     y="0"
     xlink:href="#a2163"
     id="use2230"
     transform="matrix(0,1,-1,0,1500.0001,-1360)"
     width="2000"
     height="1500" />
  <use
     x="0"
     y="0"
     xlink:href="#a2163"
     id="use2232"
     transform="matrix(0,1,-1,0,1600,-1360)"
     width="2000"
     height="1500" />
  <use
     x="0"
     y="0"
     xlink:href="#a2163"
     id="use2234"
     transform="matrix(0,1,-1,0,1500.0001,-1160)"
     width="2000"
     height="1500"
     inkscape:transform-center-y="-196.86043"
     inkscape:transform-center-x="-157.48835" />
  <use
     x="0"
     y="0"
     xlink:href="#a2163"
     id="use2236"
     transform="matrix(0,1,-1,0,1600,-1160)"
     width="2000"
     height="1500" />
  <use
     x="0"
     y="0"
     xlink:href="#a2163"
     id="use2238"
     transform="translate(-1600,339.99999)"
     width="2000"
     height="1500" />
  <use
     x="0"
     y="0"
     xlink:href="#a2163"
     id="use2240"
     transform="matrix(0,1,-1,0,2000,-1360)"
     width="2000"
     height="1500" />
  <use
     x="0"
     y="0"
     xlink:href="#a2163"
     id="use2242"
     transform="matrix(0,1,-1,0,2000,-1160)"
     width="2000"
     height="1500" />
  <use
     x="0"
     y="0"
     xlink:href="#a2163"
     id="use2244"
     transform="matrix(0,1,-1,0,300.0002,-960.00001)"
     width="2000"
     height="1500" />
  <use
     x="0"
     y="0"
     xlink:href="#a2163"
     id="use2246"
     transform="matrix(0,1,-1,0,400,-960.00001)"
     width="2000"
     height="1500" />
  <use
     x="0"
     y="0"
     xlink:href="#a2163"
     id="use2252"
     transform="matrix(0,1,-1,0,900.0001,-960.00001)"
     width="2000"
     height="1500" />
  <use
     x="0"
     y="0"
     xlink:href="#a2163"
     id="use2254"
     transform="matrix(0,1,-1,0,1000,-960.00001)"
     width="2000"
     height="1500" />
  <use
     x="0"
     y="0"
     xlink:href="#a2163"
     id="use2260"
     transform="matrix(0,1,-1,0,1500.0001,-960.00001)"
     width="2000"
     height="1500" />
  <use
     x="0"
     y="0"
     xlink:href="#a2163"
     id="use2262"
     transform="matrix(0,1,-1,0,1600,-960.00001)"
     width="2000"
     height="1500" />
  <use
     x="0"
     y="0"
     xlink:href="#a2163"
     id="use2268"
     transform="matrix(0,1,-1,0,2000,-960.00001)"
     width="2000"
     height="1500" />
</svg>
